ISO-10303-21;
HEADER;
/* Generated by software containing ST-Developer
 * from STEP Tools, Inc. (www.steptools.com) 
 */

FILE_DESCRIPTION(
/* description */ (''),
/* implementation_level */ '2;1');

FILE_NAME(
/* name */ 'HackPad-BOTTOM.step',
/* time_stamp */ '2026-08-22T12:07:15-04:00',
/* author */ (''),
/* organization */ (''),
/* preprocessor_version */ 'ST-DEVELOPER v20.1',
/* originating_system */ 'Autodesk Translation Framework v15.8.0.0',
/* authorisation */ '');

FILE_SCHEMA (('AUTOMOTIVE_DESIGN { 1 0 10303 214 3 1 1 }'));
ENDSEC;

DATA;
#10=MECHANICAL_DESIGN_GEOMETRIC_PRESENTATION_REPRESENTATION('',(#13),#1027);
#11=SHAPE_REPRESENTATION_RELATIONSHIP('SRR','None',#1034,#12);
#12=ADVANCED_BREP_SHAPE_REPRESENTATION('',(#14),#1026);
#13=STYLED_ITEM('',(#1044),#14);
#14=MANIFOLD_SOLID_BREP('Body1',#599);
#15=FACE_BOUND('',#79,.T.);
#16=FACE_BOUND('',#80,.T.);
#17=FACE_BOUND('',#81,.T.);
#18=FACE_BOUND('',#82,.T.);
#19=FACE_BOUND('',#87,.T.);
#20=FACE_BOUND('',#100,.T.);
#21=FACE_BOUND('',#101,.T.);
#22=FACE_BOUND('',#102,.T.);
#23=FACE_BOUND('',#103,.T.);
#24=FACE_BOUND('',#104,.T.);
#25=PLANE('',#616);
#26=PLANE('',#620);
#27=PLANE('',#625);
#28=PLANE('',#632);
#29=PLANE('',#636);
#30=PLANE('',#644);
#31=PLANE('',#649);
#32=PLANE('',#656);
#33=PLANE('',#658);
#34=PLANE('',#661);
#35=PLANE('',#663);
#36=PLANE('',#664);
#37=PLANE('',#665);
#38=PLANE('',#666);
#39=FACE_OUTER_BOUND('',#69,.T.);
#40=FACE_OUTER_BOUND('',#70,.T.);
#41=FACE_OUTER_BOUND('',#71,.T.);
#42=FACE_OUTER_BOUND('',#72,.T.);
#43=FACE_OUTER_BOUND('',#73,.T.);
#44=FACE_OUTER_BOUND('',#74,.T.);
#45=FACE_OUTER_BOUND('',#75,.T.);
#46=FACE_OUTER_BOUND('',#76,.T.);
#47=FACE_OUTER_BOUND('',#77,.T.);
#48=FACE_OUTER_BOUND('',#78,.T.);
#49=FACE_OUTER_BOUND('',#83,.T.);
#50=FACE_OUTER_BOUND('',#84,.T.);
#51=FACE_OUTER_BOUND('',#85,.T.);
#52=FACE_OUTER_BOUND('',#86,.T.);
#53=FACE_OUTER_BOUND('',#88,.T.);
#54=FACE_OUTER_BOUND('',#89,.T.);
#55=FACE_OUTER_BOUND('',#90,.T.);
#56=FACE_OUTER_BOUND('',#91,.T.);
#57=FACE_OUTER_BOUND('',#92,.T.);
#58=FACE_OUTER_BOUND('',#93,.T.);
#59=FACE_OUTER_BOUND('',#94,.T.);
#60=FACE_OUTER_BOUND('',#95,.T.);
#61=FACE_OUTER_BOUND('',#96,.T.);
#62=FACE_OUTER_BOUND('',#97,.T.);
#63=FACE_OUTER_BOUND('',#98,.T.);
#64=FACE_OUTER_BOUND('',#99,.T.);
#65=FACE_OUTER_BOUND('',#105,.T.);
#66=FACE_OUTER_BOUND('',#106,.T.);
#67=FACE_OUTER_BOUND('',#107,.T.);
#68=FACE_OUTER_BOUND('',#108,.T.);
#69=EDGE_LOOP('',(#385,#386,#387,#388));
#70=EDGE_LOOP('',(#389,#390,#391,#392,#393,#394,#395,#396,#397,#398,#399,
#400));
#71=EDGE_LOOP('',(#401,#402,#403,#404));
#72=EDGE_LOOP('',(#405,#406,#407,#408));
#73=EDGE_LOOP('',(#409,#410,#411,#412));
#74=EDGE_LOOP('',(#413,#414,#415,#416,#417,#418,#419,#420,#421,#422,#423,
#424));
#75=EDGE_LOOP('',(#425,#426,#427,#428));
#76=EDGE_LOOP('',(#429,#430,#431,#432));
#77=EDGE_LOOP('',(#433,#434,#435,#436));
#78=EDGE_LOOP('',(#437,#438,#439,#440,#441,#442,#443,#444));
#79=EDGE_LOOP('',(#445));
#80=EDGE_LOOP('',(#446));
#81=EDGE_LOOP('',(#447));
#82=EDGE_LOOP('',(#448));
#83=EDGE_LOOP('',(#449,#450,#451,#452));
#84=EDGE_LOOP('',(#453,#454,#455,#456));
#85=EDGE_LOOP('',(#457,#458,#459,#460));
#86=EDGE_LOOP('',(#461,#462,#463,#464));
#87=EDGE_LOOP('',(#465,#466,#467,#468,#469,#470,#471,#472));
#88=EDGE_LOOP('',(#473,#474,#475,#476));
#89=EDGE_LOOP('',(#477,#478,#479,#480));
#90=EDGE_LOOP('',(#481,#482,#483,#484));
#91=EDGE_LOOP('',(#485,#486,#487,#488));
#92=EDGE_LOOP('',(#489,#490,#491,#492));
#93=EDGE_LOOP('',(#493,#494,#495,#496));
#94=EDGE_LOOP('',(#497,#498,#499,#500));
#95=EDGE_LOOP('',(#501,#502,#503,#504));
#96=EDGE_LOOP('',(#505,#506,#507,#508));
#97=EDGE_LOOP('',(#509,#510,#511,#512));
#98=EDGE_LOOP('',(#513,#514,#515,#516));
#99=EDGE_LOOP('',(#517,#518,#519,#520,#521,#522,#523,#524));
#100=EDGE_LOOP('',(#525,#526,#527,#528,#529,#530,#531,#532));
#101=EDGE_LOOP('',(#533));
#102=EDGE_LOOP('',(#534));
#103=EDGE_LOOP('',(#535));
#104=EDGE_LOOP('',(#536));
#105=EDGE_LOOP('',(#537,#538,#539,#540));
#106=EDGE_LOOP('',(#541,#542,#543,#544));
#107=EDGE_LOOP('',(#545,#546,#547,#548));
#108=EDGE_LOOP('',(#549,#550,#551,#552));
#109=LINE('',#859,#161);
#110=LINE('',#862,#162);
#111=LINE('',#865,#163);
#112=LINE('',#869,#164);
#113=LINE('',#873,#165);
#114=LINE('',#875,#166);
#115=LINE('',#877,#167);
#116=LINE('',#879,#168);
#117=LINE('',#881,#169);
#118=LINE('',#884,#170);
#119=LINE('',#887,#171);
#120=LINE('',#888,#172);
#121=LINE('',#892,#173);
#122=LINE('',#895,#174);
#123=LINE('',#898,#175);
#124=LINE('',#901,#176);
#125=LINE('',#902,#177);
#126=LINE('',#906,#178);
#127=LINE('',#910,#179);
#128=LINE('',#914,#180);
#129=LINE('',#919,#181);
#130=LINE('',#921,#182);
#131=LINE('',#927,#183);
#132=LINE('',#930,#184);
#133=LINE('',#933,#185);
#134=LINE('',#937,#186);
#135=LINE('',#941,#187);
#136=LINE('',#944,#188);
#137=LINE('',#955,#189);
#138=LINE('',#956,#190);
#139=LINE('',#960,#191);
#140=LINE('',#965,#192);
#141=LINE('',#966,#193);
#142=LINE('',#969,#194);
#143=LINE('',#970,#195);
#144=LINE('',#975,#196);
#145=LINE('',#979,#197);
#146=LINE('',#983,#198);
#147=LINE('',#987,#199);
#148=LINE('',#989,#200);
#149=LINE('',#990,#201);
#150=LINE('',#992,#202);
#151=LINE('',#994,#203);
#152=LINE('',#997,#204);
#153=LINE('',#999,#205);
#154=LINE('',#1002,#206);
#155=LINE('',#1004,#207);
#156=LINE('',#1006,#208);
#157=LINE('',#1017,#209);
#158=LINE('',#1019,#210);
#159=LINE('',#1021,#211);
#160=LINE('',#1023,#212);
#161=VECTOR('',#681,10.);
#162=VECTOR('',#684,10.);
#163=VECTOR('',#687,10.);
#164=VECTOR('',#690,10.);
#165=VECTOR('',#693,10.);
#166=VECTOR('',#694,10.);
#167=VECTOR('',#695,10.);
#168=VECTOR('',#696,10.);
#169=VECTOR('',#697,10.);
#170=VECTOR('',#700,10.);
#171=VECTOR('',#703,10.);
#172=VECTOR('',#704,10.);
#173=VECTOR('',#709,10.);
#174=VECTOR('',#712,10.);
#175=VECTOR('',#715,10.);
#176=VECTOR('',#718,10.);
#177=VECTOR('',#719,10.);
#178=VECTOR('',#722,10.);
#179=VECTOR('',#725,10.);
#180=VECTOR('',#728,10.);
#181=VECTOR('',#735,10.);
#182=VECTOR('',#738,10.);
#183=VECTOR('',#743,10.);
#184=VECTOR('',#746,10.);
#185=VECTOR('',#749,10.);
#186=VECTOR('',#752,10.);
#187=VECTOR('',#755,10.);
#188=VECTOR('',#758,10.);
#189=VECTOR('',#769,10.);
#190=VECTOR('',#770,10.);
#191=VECTOR('',#775,10.);
#192=VECTOR('',#780,10.);
#193=VECTOR('',#781,10.);
#194=VECTOR('',#784,10.);
#195=VECTOR('',#785,10.);
#196=VECTOR('',#788,10.);
#197=VECTOR('',#791,10.);
#198=VECTOR('',#796,10.);
#199=VECTOR('',#801,10.);
#200=VECTOR('',#804,10.);
#201=VECTOR('',#805,10.);
#202=VECTOR('',#808,10.);
#203=VECTOR('',#811,10.);
#204=VECTOR('',#816,10.);
#205=VECTOR('',#819,10.);
#206=VECTOR('',#824,10.);
#207=VECTOR('',#827,10.);
#208=VECTOR('',#830,10.);
#209=VECTOR('',#843,1.45);
#210=VECTOR('',#846,1.45);
#211=VECTOR('',#849,1.45);
#212=VECTOR('',#852,1.45);
#213=CIRCLE('',#614,1.);
#214=CIRCLE('',#615,1.);
#215=CIRCLE('',#617,1.);
#216=CIRCLE('',#618,1.);
#217=CIRCLE('',#619,1.);
#218=CIRCLE('',#622,1.);
#219=CIRCLE('',#624,1.);
#220=CIRCLE('',#626,1.5);
#221=CIRCLE('',#627,1.5);
#222=CIRCLE('',#628,1.50000000000001);
#223=CIRCLE('',#629,1.50000000000001);
#224=CIRCLE('',#631,1.);
#225=CIRCLE('',#634,1.);
#226=CIRCLE('',#635,1.);
#227=CIRCLE('',#637,1.);
#228=CIRCLE('',#638,1.);
#229=CIRCLE('',#639,1.);
#230=CIRCLE('',#640,1.45);
#231=CIRCLE('',#641,1.45);
#232=CIRCLE('',#642,1.45);
#233=CIRCLE('',#643,1.45);
#234=CIRCLE('',#646,1.);
#235=CIRCLE('',#648,1.);
#236=CIRCLE('',#650,1.50000000000001);
#237=CIRCLE('',#651,1.5);
#238=CIRCLE('',#652,1.5);
#239=CIRCLE('',#653,1.50000000000001);
#240=CIRCLE('',#655,1.);
#241=CIRCLE('',#667,1.45);
#242=CIRCLE('',#668,1.45);
#243=CIRCLE('',#669,1.45);
#244=CIRCLE('',#670,1.45);
#245=VERTEX_POINT('',#855);
#246=VERTEX_POINT('',#856);
#247=VERTEX_POINT('',#858);
#248=VERTEX_POINT('',#860);
#249=VERTEX_POINT('',#864);
#250=VERTEX_POINT('',#866);
#251=VERTEX_POINT('',#868);
#252=VERTEX_POINT('',#870);
#253=VERTEX_POINT('',#872);
#254=VERTEX_POINT('',#874);
#255=VERTEX_POINT('',#876);
#256=VERTEX_POINT('',#878);
#257=VERTEX_POINT('',#880);
#258=VERTEX_POINT('',#882);
#259=VERTEX_POINT('',#886);
#260=VERTEX_POINT('',#890);
#261=VERTEX_POINT('',#894);
#262=VERTEX_POINT('',#896);
#263=VERTEX_POINT('',#900);
#264=VERTEX_POINT('',#903);
#265=VERTEX_POINT('',#905);
#266=VERTEX_POINT('',#907);
#267=VERTEX_POINT('',#909);
#268=VERTEX_POINT('',#911);
#269=VERTEX_POINT('',#913);
#270=VERTEX_POINT('',#917);
#271=VERTEX_POINT('',#923);
#272=VERTEX_POINT('',#924);
#273=VERTEX_POINT('',#926);
#274=VERTEX_POINT('',#928);
#275=VERTEX_POINT('',#932);
#276=VERTEX_POINT('',#934);
#277=VERTEX_POINT('',#936);
#278=VERTEX_POINT('',#938);
#279=VERTEX_POINT('',#940);
#280=VERTEX_POINT('',#942);
#281=VERTEX_POINT('',#945);
#282=VERTEX_POINT('',#947);
#283=VERTEX_POINT('',#949);
#284=VERTEX_POINT('',#951);
#285=VERTEX_POINT('',#954);
#286=VERTEX_POINT('',#958);
#287=VERTEX_POINT('',#962);
#288=VERTEX_POINT('',#963);
#289=VERTEX_POINT('',#968);
#290=VERTEX_POINT('',#971);
#291=VERTEX_POINT('',#972);
#292=VERTEX_POINT('',#974);
#293=VERTEX_POINT('',#976);
#294=VERTEX_POINT('',#978);
#295=VERTEX_POINT('',#981);
#296=VERTEX_POINT('',#985);
#297=VERTEX_POINT('',#1008);
#298=VERTEX_POINT('',#1010);
#299=VERTEX_POINT('',#1012);
#300=VERTEX_POINT('',#1014);
#301=EDGE_CURVE('',#245,#246,#213,.T.);
#302=EDGE_CURVE('',#245,#247,#109,.T.);
#303=EDGE_CURVE('',#247,#248,#214,.T.);
#304=EDGE_CURVE('',#248,#246,#110,.T.);
#305=EDGE_CURVE('',#246,#249,#111,.T.);
#306=EDGE_CURVE('',#249,#250,#215,.T.);
#307=EDGE_CURVE('',#250,#251,#112,.T.);
#308=EDGE_CURVE('',#251,#252,#216,.T.);
#309=EDGE_CURVE('',#252,#253,#113,.T.);
#310=EDGE_CURVE('',#254,#253,#114,.T.);
#311=EDGE_CURVE('',#255,#254,#115,.T.);
#312=EDGE_CURVE('',#255,#256,#116,.T.);
#313=EDGE_CURVE('',#256,#257,#117,.T.);
#314=EDGE_CURVE('',#257,#258,#217,.T.);
#315=EDGE_CURVE('',#258,#245,#118,.T.);
#316=EDGE_CURVE('',#259,#248,#119,.T.);
#317=EDGE_CURVE('',#249,#259,#120,.T.);
#318=EDGE_CURVE('',#259,#260,#218,.T.);
#319=EDGE_CURVE('',#260,#250,#121,.T.);
#320=EDGE_CURVE('',#251,#261,#122,.T.);
#321=EDGE_CURVE('',#261,#262,#219,.T.);
#322=EDGE_CURVE('',#262,#252,#123,.T.);
#323=EDGE_CURVE('',#263,#262,#124,.T.);
#324=EDGE_CURVE('',#257,#263,#125,.T.);
#325=EDGE_CURVE('',#256,#264,#220,.T.);
#326=EDGE_CURVE('',#264,#265,#126,.T.);
#327=EDGE_CURVE('',#265,#266,#221,.T.);
#328=EDGE_CURVE('',#266,#267,#127,.T.);
#329=EDGE_CURVE('',#267,#268,#222,.T.);
#330=EDGE_CURVE('',#268,#269,#128,.T.);
#331=EDGE_CURVE('',#269,#253,#223,.T.);
#332=EDGE_CURVE('',#263,#270,#224,.T.);
#333=EDGE_CURVE('',#270,#258,#129,.T.);
#334=EDGE_CURVE('',#247,#270,#130,.T.);
#335=EDGE_CURVE('',#271,#272,#225,.T.);
#336=EDGE_CURVE('',#272,#273,#131,.T.);
#337=EDGE_CURVE('',#273,#274,#226,.T.);
#338=EDGE_CURVE('',#274,#271,#132,.T.);
#339=EDGE_CURVE('',#275,#273,#133,.T.);
#340=EDGE_CURVE('',#276,#275,#227,.T.);
#341=EDGE_CURVE('',#277,#276,#134,.T.);
#342=EDGE_CURVE('',#278,#277,#228,.T.);
#343=EDGE_CURVE('',#279,#278,#135,.T.);
#344=EDGE_CURVE('',#280,#279,#229,.T.);
#345=EDGE_CURVE('',#274,#280,#136,.T.);
#346=EDGE_CURVE('',#281,#281,#230,.T.);
#347=EDGE_CURVE('',#282,#282,#231,.T.);
#348=EDGE_CURVE('',#283,#283,#232,.T.);
#349=EDGE_CURVE('',#284,#284,#233,.T.);
#350=EDGE_CURVE('',#285,#272,#137,.T.);
#351=EDGE_CURVE('',#275,#285,#138,.T.);
#352=EDGE_CURVE('',#285,#286,#234,.T.);
#353=EDGE_CURVE('',#286,#276,#139,.T.);
#354=EDGE_CURVE('',#287,#288,#235,.T.);
#355=EDGE_CURVE('',#288,#278,#140,.T.);
#356=EDGE_CURVE('',#277,#287,#141,.T.);
#357=EDGE_CURVE('',#289,#288,#142,.T.);
#358=EDGE_CURVE('',#279,#289,#143,.T.);
#359=EDGE_CURVE('',#290,#291,#236,.T.);
#360=EDGE_CURVE('',#291,#292,#144,.T.);
#361=EDGE_CURVE('',#292,#293,#237,.T.);
#362=EDGE_CURVE('',#293,#294,#145,.T.);
#363=EDGE_CURVE('',#294,#255,#238,.T.);
#364=EDGE_CURVE('',#254,#295,#239,.T.);
#365=EDGE_CURVE('',#295,#290,#146,.T.);
#366=EDGE_CURVE('',#289,#296,#240,.T.);
#367=EDGE_CURVE('',#296,#280,#147,.T.);
#368=EDGE_CURVE('',#292,#266,#148,.T.);
#369=EDGE_CURVE('',#291,#267,#149,.T.);
#370=EDGE_CURVE('',#290,#268,#150,.T.);
#371=EDGE_CURVE('',#295,#269,#151,.T.);
#372=EDGE_CURVE('',#294,#264,#152,.T.);
#373=EDGE_CURVE('',#293,#265,#153,.T.);
#374=EDGE_CURVE('',#287,#286,#154,.T.);
#375=EDGE_CURVE('',#271,#296,#155,.T.);
#376=EDGE_CURVE('',#261,#260,#156,.T.);
#377=EDGE_CURVE('',#297,#297,#241,.T.);
#378=EDGE_CURVE('',#298,#298,#242,.T.);
#379=EDGE_CURVE('',#299,#299,#243,.T.);
#380=EDGE_CURVE('',#300,#300,#244,.T.);
#381=EDGE_CURVE('',#284,#297,#157,.T.);
#382=EDGE_CURVE('',#283,#298,#158,.T.);
#383=EDGE_CURVE('',#282,#299,#159,.T.);
#384=EDGE_CURVE('',#281,#300,#160,.T.);
#385=ORIENTED_EDGE('',*,*,#301,.F.);
#386=ORIENTED_EDGE('',*,*,#302,.T.);
#387=ORIENTED_EDGE('',*,*,#303,.T.);
#388=ORIENTED_EDGE('',*,*,#304,.T.);
#389=ORIENTED_EDGE('',*,*,#301,.T.);
#390=ORIENTED_EDGE('',*,*,#305,.T.);
#391=ORIENTED_EDGE('',*,*,#306,.T.);
#392=ORIENTED_EDGE('',*,*,#307,.T.);
#393=ORIENTED_EDGE('',*,*,#308,.T.);
#394=ORIENTED_EDGE('',*,*,#309,.T.);
#395=ORIENTED_EDGE('',*,*,#310,.F.);
#396=ORIENTED_EDGE('',*,*,#311,.F.);
#397=ORIENTED_EDGE('',*,*,#312,.T.);
#398=ORIENTED_EDGE('',*,*,#313,.T.);
#399=ORIENTED_EDGE('',*,*,#314,.T.);
#400=ORIENTED_EDGE('',*,*,#315,.T.);
#401=ORIENTED_EDGE('',*,*,#304,.F.);
#402=ORIENTED_EDGE('',*,*,#316,.F.);
#403=ORIENTED_EDGE('',*,*,#317,.F.);
#404=ORIENTED_EDGE('',*,*,#305,.F.);
#405=ORIENTED_EDGE('',*,*,#306,.F.);
#406=ORIENTED_EDGE('',*,*,#317,.T.);
#407=ORIENTED_EDGE('',*,*,#318,.T.);
#408=ORIENTED_EDGE('',*,*,#319,.T.);
#409=ORIENTED_EDGE('',*,*,#308,.F.);
#410=ORIENTED_EDGE('',*,*,#320,.T.);
#411=ORIENTED_EDGE('',*,*,#321,.T.);
#412=ORIENTED_EDGE('',*,*,#322,.T.);
#413=ORIENTED_EDGE('',*,*,#322,.F.);
#414=ORIENTED_EDGE('',*,*,#323,.F.);
#415=ORIENTED_EDGE('',*,*,#324,.F.);
#416=ORIENTED_EDGE('',*,*,#313,.F.);
#417=ORIENTED_EDGE('',*,*,#325,.T.);
#418=ORIENTED_EDGE('',*,*,#326,.T.);
#419=ORIENTED_EDGE('',*,*,#327,.T.);
#420=ORIENTED_EDGE('',*,*,#328,.T.);
#421=ORIENTED_EDGE('',*,*,#329,.T.);
#422=ORIENTED_EDGE('',*,*,#330,.T.);
#423=ORIENTED_EDGE('',*,*,#331,.T.);
#424=ORIENTED_EDGE('',*,*,#309,.F.);
#425=ORIENTED_EDGE('',*,*,#314,.F.);
#426=ORIENTED_EDGE('',*,*,#324,.T.);
#427=ORIENTED_EDGE('',*,*,#332,.T.);
#428=ORIENTED_EDGE('',*,*,#333,.T.);
#429=ORIENTED_EDGE('',*,*,#302,.F.);
#430=ORIENTED_EDGE('',*,*,#315,.F.);
#431=ORIENTED_EDGE('',*,*,#333,.F.);
#432=ORIENTED_EDGE('',*,*,#334,.F.);
#433=ORIENTED_EDGE('',*,*,#335,.T.);
#434=ORIENTED_EDGE('',*,*,#336,.T.);
#435=ORIENTED_EDGE('',*,*,#337,.T.);
#436=ORIENTED_EDGE('',*,*,#338,.T.);
#437=ORIENTED_EDGE('',*,*,#337,.F.);
#438=ORIENTED_EDGE('',*,*,#339,.F.);
#439=ORIENTED_EDGE('',*,*,#340,.F.);
#440=ORIENTED_EDGE('',*,*,#341,.F.);
#441=ORIENTED_EDGE('',*,*,#342,.F.);
#442=ORIENTED_EDGE('',*,*,#343,.F.);
#443=ORIENTED_EDGE('',*,*,#344,.F.);
#444=ORIENTED_EDGE('',*,*,#345,.F.);
#445=ORIENTED_EDGE('',*,*,#346,.T.);
#446=ORIENTED_EDGE('',*,*,#347,.T.);
#447=ORIENTED_EDGE('',*,*,#348,.T.);
#448=ORIENTED_EDGE('',*,*,#349,.T.);
#449=ORIENTED_EDGE('',*,*,#336,.F.);
#450=ORIENTED_EDGE('',*,*,#350,.F.);
#451=ORIENTED_EDGE('',*,*,#351,.F.);
#452=ORIENTED_EDGE('',*,*,#339,.T.);
#453=ORIENTED_EDGE('',*,*,#352,.T.);
#454=ORIENTED_EDGE('',*,*,#353,.T.);
#455=ORIENTED_EDGE('',*,*,#340,.T.);
#456=ORIENTED_EDGE('',*,*,#351,.T.);
#457=ORIENTED_EDGE('',*,*,#354,.T.);
#458=ORIENTED_EDGE('',*,*,#355,.T.);
#459=ORIENTED_EDGE('',*,*,#342,.T.);
#460=ORIENTED_EDGE('',*,*,#356,.T.);
#461=ORIENTED_EDGE('',*,*,#355,.F.);
#462=ORIENTED_EDGE('',*,*,#357,.F.);
#463=ORIENTED_EDGE('',*,*,#358,.F.);
#464=ORIENTED_EDGE('',*,*,#343,.T.);
#465=ORIENTED_EDGE('',*,*,#359,.T.);
#466=ORIENTED_EDGE('',*,*,#360,.T.);
#467=ORIENTED_EDGE('',*,*,#361,.T.);
#468=ORIENTED_EDGE('',*,*,#362,.T.);
#469=ORIENTED_EDGE('',*,*,#363,.T.);
#470=ORIENTED_EDGE('',*,*,#311,.T.);
#471=ORIENTED_EDGE('',*,*,#364,.T.);
#472=ORIENTED_EDGE('',*,*,#365,.T.);
#473=ORIENTED_EDGE('',*,*,#366,.T.);
#474=ORIENTED_EDGE('',*,*,#367,.T.);
#475=ORIENTED_EDGE('',*,*,#344,.T.);
#476=ORIENTED_EDGE('',*,*,#358,.T.);
#477=ORIENTED_EDGE('',*,*,#328,.F.);
#478=ORIENTED_EDGE('',*,*,#368,.F.);
#479=ORIENTED_EDGE('',*,*,#360,.F.);
#480=ORIENTED_EDGE('',*,*,#369,.T.);
#481=ORIENTED_EDGE('',*,*,#329,.F.);
#482=ORIENTED_EDGE('',*,*,#369,.F.);
#483=ORIENTED_EDGE('',*,*,#359,.F.);
#484=ORIENTED_EDGE('',*,*,#370,.T.);
#485=ORIENTED_EDGE('',*,*,#330,.F.);
#486=ORIENTED_EDGE('',*,*,#370,.F.);
#487=ORIENTED_EDGE('',*,*,#365,.F.);
#488=ORIENTED_EDGE('',*,*,#371,.T.);
#489=ORIENTED_EDGE('',*,*,#331,.F.);
#490=ORIENTED_EDGE('',*,*,#371,.F.);
#491=ORIENTED_EDGE('',*,*,#364,.F.);
#492=ORIENTED_EDGE('',*,*,#310,.T.);
#493=ORIENTED_EDGE('',*,*,#325,.F.);
#494=ORIENTED_EDGE('',*,*,#312,.F.);
#495=ORIENTED_EDGE('',*,*,#363,.F.);
#496=ORIENTED_EDGE('',*,*,#372,.T.);
#497=ORIENTED_EDGE('',*,*,#326,.F.);
#498=ORIENTED_EDGE('',*,*,#372,.F.);
#499=ORIENTED_EDGE('',*,*,#362,.F.);
#500=ORIENTED_EDGE('',*,*,#373,.T.);
#501=ORIENTED_EDGE('',*,*,#327,.F.);
#502=ORIENTED_EDGE('',*,*,#373,.F.);
#503=ORIENTED_EDGE('',*,*,#361,.F.);
#504=ORIENTED_EDGE('',*,*,#368,.T.);
#505=ORIENTED_EDGE('',*,*,#353,.F.);
#506=ORIENTED_EDGE('',*,*,#374,.F.);
#507=ORIENTED_EDGE('',*,*,#356,.F.);
#508=ORIENTED_EDGE('',*,*,#341,.T.);
#509=ORIENTED_EDGE('',*,*,#338,.F.);
#510=ORIENTED_EDGE('',*,*,#345,.T.);
#511=ORIENTED_EDGE('',*,*,#367,.F.);
#512=ORIENTED_EDGE('',*,*,#375,.F.);
#513=ORIENTED_EDGE('',*,*,#319,.F.);
#514=ORIENTED_EDGE('',*,*,#376,.F.);
#515=ORIENTED_EDGE('',*,*,#320,.F.);
#516=ORIENTED_EDGE('',*,*,#307,.F.);
#517=ORIENTED_EDGE('',*,*,#335,.F.);
#518=ORIENTED_EDGE('',*,*,#375,.T.);
#519=ORIENTED_EDGE('',*,*,#366,.F.);
#520=ORIENTED_EDGE('',*,*,#357,.T.);
#521=ORIENTED_EDGE('',*,*,#354,.F.);
#522=ORIENTED_EDGE('',*,*,#374,.T.);
#523=ORIENTED_EDGE('',*,*,#352,.F.);
#524=ORIENTED_EDGE('',*,*,#350,.T.);
#525=ORIENTED_EDGE('',*,*,#316,.T.);
#526=ORIENTED_EDGE('',*,*,#303,.F.);
#527=ORIENTED_EDGE('',*,*,#334,.T.);
#528=ORIENTED_EDGE('',*,*,#332,.F.);
#529=ORIENTED_EDGE('',*,*,#323,.T.);
#530=ORIENTED_EDGE('',*,*,#321,.F.);
#531=ORIENTED_EDGE('',*,*,#376,.T.);
#532=ORIENTED_EDGE('',*,*,#318,.F.);
#533=ORIENTED_EDGE('',*,*,#377,.T.);
#534=ORIENTED_EDGE('',*,*,#378,.T.);
#535=ORIENTED_EDGE('',*,*,#379,.T.);
#536=ORIENTED_EDGE('',*,*,#380,.T.);
#537=ORIENTED_EDGE('',*,*,#349,.F.);
#538=ORIENTED_EDGE('',*,*,#381,.T.);
#539=ORIENTED_EDGE('',*,*,#377,.F.);
#540=ORIENTED_EDGE('',*,*,#381,.F.);
#541=ORIENTED_EDGE('',*,*,#348,.F.);
#542=ORIENTED_EDGE('',*,*,#382,.T.);
#543=ORIENTED_EDGE('',*,*,#378,.F.);
#544=ORIENTED_EDGE('',*,*,#382,.F.);
#545=ORIENTED_EDGE('',*,*,#347,.F.);
#546=ORIENTED_EDGE('',*,*,#383,.T.);
#547=ORIENTED_EDGE('',*,*,#379,.F.);
#548=ORIENTED_EDGE('',*,*,#383,.F.);
#549=ORIENTED_EDGE('',*,*,#346,.F.);
#550=ORIENTED_EDGE('',*,*,#384,.T.);
#551=ORIENTED_EDGE('',*,*,#380,.F.);
#552=ORIENTED_EDGE('',*,*,#384,.F.);
#553=CYLINDRICAL_SURFACE('',#613,1.);
#554=CYLINDRICAL_SURFACE('',#621,1.);
#555=CYLINDRICAL_SURFACE('',#623,1.);
#556=CYLINDRICAL_SURFACE('',#630,1.);
#557=CYLINDRICAL_SURFACE('',#633,1.);
#558=CYLINDRICAL_SURFACE('',#645,1.);
#559=CYLINDRICAL_SURFACE('',#647,1.);
#560=CYLINDRICAL_SURFACE('',#654,1.);
#561=CYLINDRICAL_SURFACE('',#657,1.50000000000001);
#562=CYLINDRICAL_SURFACE('',#659,1.50000000000001);
#563=CYLINDRICAL_SURFACE('',#660,1.5);
#564=CYLINDRICAL_SURFACE('',#662,1.5);
#565=CYLINDRICAL_SURFACE('',#671,1.45);
#566=CYLINDRICAL_SURFACE('',#672,1.45);
#567=CYLINDRICAL_SURFACE('',#673,1.45);
#568=CYLINDRICAL_SURFACE('',#674,1.45);
#569=ADVANCED_FACE('',(#39),#553,.F.);
#570=ADVANCED_FACE('',(#40),#25,.T.);
#571=ADVANCED_FACE('',(#41),#26,.T.);
#572=ADVANCED_FACE('',(#42),#554,.F.);
#573=ADVANCED_FACE('',(#43),#555,.F.);
#574=ADVANCED_FACE('',(#44),#27,.T.);
#575=ADVANCED_FACE('',(#45),#556,.F.);
#576=ADVANCED_FACE('',(#46),#28,.T.);
#577=ADVANCED_FACE('',(#47),#557,.T.);
#578=ADVANCED_FACE('',(#48,#15,#16,#17,#18),#29,.F.);
#579=ADVANCED_FACE('',(#49),#30,.T.);
#580=ADVANCED_FACE('',(#50),#558,.T.);
#581=ADVANCED_FACE('',(#51),#559,.T.);
#582=ADVANCED_FACE('',(#52,#19),#31,.T.);
#583=ADVANCED_FACE('',(#53),#560,.T.);
#584=ADVANCED_FACE('',(#54),#32,.F.);
#585=ADVANCED_FACE('',(#55),#561,.F.);
#586=ADVANCED_FACE('',(#56),#33,.F.);
#587=ADVANCED_FACE('',(#57),#562,.F.);
#588=ADVANCED_FACE('',(#58),#563,.F.);
#589=ADVANCED_FACE('',(#59),#34,.F.);
#590=ADVANCED_FACE('',(#60),#564,.F.);
#591=ADVANCED_FACE('',(#61),#35,.T.);
#592=ADVANCED_FACE('',(#62),#36,.T.);
#593=ADVANCED_FACE('',(#63),#37,.T.);
#594=ADVANCED_FACE('',(#64,#20,#21,#22,#23,#24),#38,.T.);
#595=ADVANCED_FACE('',(#65),#565,.F.);
#596=ADVANCED_FACE('',(#66),#566,.F.);
#597=ADVANCED_FACE('',(#67),#567,.F.);
#598=ADVANCED_FACE('',(#68),#568,.F.);
#599=CLOSED_SHELL('',(#569,#570,#571,#572,#573,#574,#575,#576,#577,#578,
#579,#580,#581,#582,#583,#584,#585,#586,#587,#588,#589,#590,#591,#592,#593,
#594,#595,#596,#597,#598));
#600=DERIVED_UNIT_ELEMENT(#602,1.);
#601=DERIVED_UNIT_ELEMENT(#1029,-3.);
#602=(
MASS_UNIT()
NAMED_UNIT(*)
SI_UNIT(.KILO.,.GRAM.)
);
#603=DERIVED_UNIT((#600,#601));
#604=MEASURE_REPRESENTATION_ITEM('density measure',
POSITIVE_RATIO_MEASURE(7850.),#603);
#605=PROPERTY_DEFINITION_REPRESENTATION(#610,#607);
#606=PROPERTY_DEFINITION_REPRESENTATION(#611,#608);
#607=REPRESENTATION('material name',(#609),#1026);
#608=REPRESENTATION('density',(#604),#1026);
#609=DESCRIPTIVE_REPRESENTATION_ITEM('Steel','Steel');
#610=PROPERTY_DEFINITION('material property','material name',#1036);
#611=PROPERTY_DEFINITION('material property','density of part',#1036);
#612=AXIS2_PLACEMENT_3D('',#853,#675,#676);
#613=AXIS2_PLACEMENT_3D('',#854,#677,#678);
#614=AXIS2_PLACEMENT_3D('',#857,#679,#680);
#615=AXIS2_PLACEMENT_3D('',#861,#682,#683);
#616=AXIS2_PLACEMENT_3D('',#863,#685,#686);
#617=AXIS2_PLACEMENT_3D('',#867,#688,#689);
#618=AXIS2_PLACEMENT_3D('',#871,#691,#692);
#619=AXIS2_PLACEMENT_3D('',#883,#698,#699);
#620=AXIS2_PLACEMENT_3D('',#885,#701,#702);
#621=AXIS2_PLACEMENT_3D('',#889,#705,#706);
#622=AXIS2_PLACEMENT_3D('',#891,#707,#708);
#623=AXIS2_PLACEMENT_3D('',#893,#710,#711);
#624=AXIS2_PLACEMENT_3D('',#897,#713,#714);
#625=AXIS2_PLACEMENT_3D('',#899,#716,#717);
#626=AXIS2_PLACEMENT_3D('',#904,#720,#721);
#627=AXIS2_PLACEMENT_3D('',#908,#723,#724);
#628=AXIS2_PLACEMENT_3D('',#912,#726,#727);
#629=AXIS2_PLACEMENT_3D('',#915,#729,#730);
#630=AXIS2_PLACEMENT_3D('',#916,#731,#732);
#631=AXIS2_PLACEMENT_3D('',#918,#733,#734);
#632=AXIS2_PLACEMENT_3D('',#920,#736,#737);
#633=AXIS2_PLACEMENT_3D('',#922,#739,#740);
#634=AXIS2_PLACEMENT_3D('',#925,#741,#742);
#635=AXIS2_PLACEMENT_3D('',#929,#744,#745);
#636=AXIS2_PLACEMENT_3D('',#931,#747,#748);
#637=AXIS2_PLACEMENT_3D('',#935,#750,#751);
#638=AXIS2_PLACEMENT_3D('',#939,#753,#754);
#639=AXIS2_PLACEMENT_3D('',#943,#756,#757);
#640=AXIS2_PLACEMENT_3D('',#946,#759,#760);
#641=AXIS2_PLACEMENT_3D('',#948,#761,#762);
#642=AXIS2_PLACEMENT_3D('',#950,#763,#764);
#643=AXIS2_PLACEMENT_3D('',#952,#765,#766);
#644=AXIS2_PLACEMENT_3D('',#953,#767,#768);
#645=AXIS2_PLACEMENT_3D('',#957,#771,#772);
#646=AXIS2_PLACEMENT_3D('',#959,#773,#774);
#647=AXIS2_PLACEMENT_3D('',#961,#776,#777);
#648=AXIS2_PLACEMENT_3D('',#964,#778,#779);
#649=AXIS2_PLACEMENT_3D('',#967,#782,#783);
#650=AXIS2_PLACEMENT_3D('',#973,#786,#787);
#651=AXIS2_PLACEMENT_3D('',#977,#789,#790);
#652=AXIS2_PLACEMENT_3D('',#980,#792,#793);
#653=AXIS2_PLACEMENT_3D('',#982,#794,#795);
#654=AXIS2_PLACEMENT_3D('',#984,#797,#798);
#655=AXIS2_PLACEMENT_3D('',#986,#799,#800);
#656=AXIS2_PLACEMENT_3D('',#988,#802,#803);
#657=AXIS2_PLACEMENT_3D('',#991,#806,#807);
#658=AXIS2_PLACEMENT_3D('',#993,#809,#810);
#659=AXIS2_PLACEMENT_3D('',#995,#812,#813);
#660=AXIS2_PLACEMENT_3D('',#996,#814,#815);
#661=AXIS2_PLACEMENT_3D('',#998,#817,#818);
#662=AXIS2_PLACEMENT_3D('',#1000,#820,#821);
#663=AXIS2_PLACEMENT_3D('',#1001,#822,#823);
#664=AXIS2_PLACEMENT_3D('',#1003,#825,#826);
#665=AXIS2_PLACEMENT_3D('',#1005,#828,#829);
#666=AXIS2_PLACEMENT_3D('',#1007,#831,#832);
#667=AXIS2_PLACEMENT_3D('',#1009,#833,#834);
#668=AXIS2_PLACEMENT_3D('',#1011,#835,#836);
#669=AXIS2_PLACEMENT_3D('',#1013,#837,#838);
#670=AXIS2_PLACEMENT_3D('',#1015,#839,#840);
#671=AXIS2_PLACEMENT_3D('',#1016,#841,#842);
#672=AXIS2_PLACEMENT_3D('',#1018,#844,#845);
#673=AXIS2_PLACEMENT_3D('',#1020,#847,#848);
#674=AXIS2_PLACEMENT_3D('',#1022,#850,#851);
#675=DIRECTION('axis',(0.,0.,1.));
#676=DIRECTION('refdir',(1.,0.,0.));
#677=DIRECTION('center_axis',(0.,0.,1.));
#678=DIRECTION('ref_axis',(0.707106781186548,0.707106781186548,0.));
#679=DIRECTION('center_axis',(0.,0.,1.));
#680=DIRECTION('ref_axis',(0.707106781186548,0.707106781186548,0.));
#681=DIRECTION('',(0.,0.,1.));
#682=DIRECTION('center_axis',(0.,0.,1.));
#683=DIRECTION('ref_axis',(0.707106781186548,0.707106781186548,0.));
#684=DIRECTION('',(0.,0.,-1.));
#685=DIRECTION('center_axis',(0.,0.,1.));
#686=DIRECTION('ref_axis',(1.,0.,0.));
#687=DIRECTION('',(-1.,0.,0.));
#688=DIRECTION('center_axis',(0.,0.,1.));
#689=DIRECTION('ref_axis',(-0.707106781186548,0.707106781186548,0.));
#690=DIRECTION('',(0.,-1.,0.));
#691=DIRECTION('center_axis',(0.,0.,1.));
#692=DIRECTION('ref_axis',(-0.707106781186548,-0.707106781186548,0.));
#693=DIRECTION('',(1.,0.,0.));
#694=DIRECTION('',(0.,1.,0.));
#695=DIRECTION('',(-1.,0.,-1.38777878078145E-16));
#696=DIRECTION('',(0.,1.,0.));
#697=DIRECTION('',(1.,0.,0.));
#698=DIRECTION('center_axis',(0.,0.,1.));
#699=DIRECTION('ref_axis',(0.707106781186548,-0.707106781186548,0.));
#700=DIRECTION('',(0.,1.,0.));
#701=DIRECTION('center_axis',(0.,-1.,0.));
#702=DIRECTION('ref_axis',(1.,0.,0.));
#703=DIRECTION('',(1.,0.,0.));
#704=DIRECTION('',(0.,0.,1.));
#705=DIRECTION('center_axis',(0.,0.,1.));
#706=DIRECTION('ref_axis',(-0.707106781186548,0.707106781186548,0.));
#707=DIRECTION('center_axis',(0.,0.,1.));
#708=DIRECTION('ref_axis',(-0.707106781186548,0.707106781186548,0.));
#709=DIRECTION('',(0.,0.,-1.));
#710=DIRECTION('center_axis',(0.,0.,1.));
#711=DIRECTION('ref_axis',(-0.707106781186548,-0.707106781186548,0.));
#712=DIRECTION('',(0.,0.,1.));
#713=DIRECTION('center_axis',(0.,0.,1.));
#714=DIRECTION('ref_axis',(-0.707106781186548,-0.707106781186548,0.));
#715=DIRECTION('',(0.,0.,-1.));
#716=DIRECTION('center_axis',(0.,1.,0.));
#717=DIRECTION('ref_axis',(-1.,0.,0.));
#718=DIRECTION('',(-1.,0.,0.));
#719=DIRECTION('',(0.,0.,1.));
#720=DIRECTION('center_axis',(0.,-1.,0.));
#721=DIRECTION('ref_axis',(0.,0.,-1.));
#722=DIRECTION('',(0.,0.,1.));
#723=DIRECTION('center_axis',(0.,-1.,0.));
#724=DIRECTION('ref_axis',(1.,0.,7.40148683083436E-16));
#725=DIRECTION('',(-1.,0.,0.));
#726=DIRECTION('center_axis',(0.,-1.,0.));
#727=DIRECTION('ref_axis',(-5.92118946466746E-15,0.,1.));
#728=DIRECTION('',(0.,0.,-1.));
#729=DIRECTION('center_axis',(0.,-1.,0.));
#730=DIRECTION('ref_axis',(-1.,0.,-7.77156117237603E-15));
#731=DIRECTION('center_axis',(0.,0.,1.));
#732=DIRECTION('ref_axis',(0.707106781186548,-0.707106781186548,0.));
#733=DIRECTION('center_axis',(0.,0.,1.));
#734=DIRECTION('ref_axis',(0.707106781186548,-0.707106781186548,0.));
#735=DIRECTION('',(0.,0.,-1.));
#736=DIRECTION('center_axis',(-1.,0.,0.));
#737=DIRECTION('ref_axis',(0.,-1.,0.));
#738=DIRECTION('',(0.,-1.,0.));
#739=DIRECTION('center_axis',(0.,0.,1.));
#740=DIRECTION('ref_axis',(-0.707106781186548,0.707106781186548,0.));
#741=DIRECTION('center_axis',(0.,0.,-1.));
#742=DIRECTION('ref_axis',(-0.707106781186548,0.707106781186548,0.));
#743=DIRECTION('',(0.,0.,-1.));
#744=DIRECTION('center_axis',(0.,0.,1.));
#745=DIRECTION('ref_axis',(-0.707106781186548,0.707106781186548,0.));
#746=DIRECTION('',(0.,0.,1.));
#747=DIRECTION('center_axis',(0.,0.,1.));
#748=DIRECTION('ref_axis',(1.,0.,0.));
#749=DIRECTION('',(-1.,0.,0.));
#750=DIRECTION('center_axis',(0.,0.,1.));
#751=DIRECTION('ref_axis',(0.707106781186548,0.707106781186548,0.));
#752=DIRECTION('',(0.,1.,0.));
#753=DIRECTION('center_axis',(0.,0.,1.));
#754=DIRECTION('ref_axis',(0.707106781186548,-0.707106781186548,0.));
#755=DIRECTION('',(1.,0.,0.));
#756=DIRECTION('center_axis',(0.,0.,1.));
#757=DIRECTION('ref_axis',(-0.707106781186548,-0.707106781186548,0.));
#758=DIRECTION('',(0.,-1.,0.));
#759=DIRECTION('center_axis',(0.,0.,1.));
#760=DIRECTION('ref_axis',(-1.,0.,0.));
#761=DIRECTION('center_axis',(0.,0.,1.));
#762=DIRECTION('ref_axis',(-1.,0.,0.));
#763=DIRECTION('center_axis',(0.,0.,1.));
#764=DIRECTION('ref_axis',(-1.,0.,0.));
#765=DIRECTION('center_axis',(0.,0.,1.));
#766=DIRECTION('ref_axis',(-1.,0.,0.));
#767=DIRECTION('center_axis',(0.,1.,0.));
#768=DIRECTION('ref_axis',(-1.,0.,0.));
#769=DIRECTION('',(-1.,0.,0.));
#770=DIRECTION('',(0.,0.,1.));
#771=DIRECTION('center_axis',(0.,0.,1.));
#772=DIRECTION('ref_axis',(0.707106781186548,0.707106781186548,0.));
#773=DIRECTION('center_axis',(0.,0.,-1.));
#774=DIRECTION('ref_axis',(0.707106781186548,0.707106781186548,0.));
#775=DIRECTION('',(0.,0.,-1.));
#776=DIRECTION('center_axis',(0.,0.,1.));
#777=DIRECTION('ref_axis',(0.707106781186548,-0.707106781186548,0.));
#778=DIRECTION('center_axis',(0.,0.,-1.));
#779=DIRECTION('ref_axis',(0.707106781186548,-0.707106781186548,0.));
#780=DIRECTION('',(0.,0.,-1.));
#781=DIRECTION('',(0.,0.,1.));
#782=DIRECTION('center_axis',(0.,-1.,0.));
#783=DIRECTION('ref_axis',(1.,0.,0.));
#784=DIRECTION('',(1.,0.,0.));
#785=DIRECTION('',(0.,0.,1.));
#786=DIRECTION('center_axis',(0.,1.,0.));
#787=DIRECTION('ref_axis',(-5.92118946466746E-15,0.,1.));
#788=DIRECTION('',(1.,0.,0.));
#789=DIRECTION('center_axis',(0.,1.,0.));
#790=DIRECTION('ref_axis',(1.,0.,7.40148683083436E-16));
#791=DIRECTION('',(0.,0.,-1.));
#792=DIRECTION('center_axis',(0.,1.,0.));
#793=DIRECTION('ref_axis',(0.,0.,-1.));
#794=DIRECTION('center_axis',(0.,1.,0.));
#795=DIRECTION('ref_axis',(-1.,0.,-7.77156117237603E-15));
#796=DIRECTION('',(0.,0.,1.));
#797=DIRECTION('center_axis',(0.,0.,1.));
#798=DIRECTION('ref_axis',(-0.707106781186548,-0.707106781186548,0.));
#799=DIRECTION('center_axis',(0.,0.,-1.));
#800=DIRECTION('ref_axis',(-0.707106781186548,-0.707106781186548,0.));
#801=DIRECTION('',(0.,0.,-1.));
#802=DIRECTION('center_axis',(0.,0.,1.));
#803=DIRECTION('ref_axis',(1.,0.,0.));
#804=DIRECTION('',(0.,1.,0.));
#805=DIRECTION('',(0.,1.,0.));
#806=DIRECTION('center_axis',(0.,1.,0.));
#807=DIRECTION('ref_axis',(-5.92118946466746E-15,0.,1.));
#808=DIRECTION('',(0.,1.,0.));
#809=DIRECTION('center_axis',(-1.,0.,0.));
#810=DIRECTION('ref_axis',(0.,0.,1.));
#811=DIRECTION('',(0.,1.,0.));
#812=DIRECTION('center_axis',(0.,1.,0.));
#813=DIRECTION('ref_axis',(-1.,0.,-7.77156117237603E-15));
#814=DIRECTION('center_axis',(0.,1.,0.));
#815=DIRECTION('ref_axis',(0.,0.,-1.));
#816=DIRECTION('',(0.,1.,0.));
#817=DIRECTION('center_axis',(1.,0.,0.));
#818=DIRECTION('ref_axis',(0.,0.,-1.));
#819=DIRECTION('',(0.,1.,0.));
#820=DIRECTION('center_axis',(0.,1.,0.));
#821=DIRECTION('ref_axis',(1.,0.,7.40148683083436E-16));
#822=DIRECTION('center_axis',(1.,0.,0.));
#823=DIRECTION('ref_axis',(0.,1.,0.));
#824=DIRECTION('',(0.,1.,0.));
#825=DIRECTION('center_axis',(-1.,0.,0.));
#826=DIRECTION('ref_axis',(0.,-1.,0.));
#827=DIRECTION('',(0.,-1.,0.));
#828=DIRECTION('center_axis',(1.,0.,0.));
#829=DIRECTION('ref_axis',(0.,1.,0.));
#830=DIRECTION('',(0.,1.,0.));
#831=DIRECTION('center_axis',(0.,0.,1.));
#832=DIRECTION('ref_axis',(1.,0.,0.));
#833=DIRECTION('center_axis',(0.,0.,-1.));
#834=DIRECTION('ref_axis',(-1.,0.,0.));
#835=DIRECTION('center_axis',(0.,0.,-1.));
#836=DIRECTION('ref_axis',(-1.,0.,0.));
#837=DIRECTION('center_axis',(0.,0.,-1.));
#838=DIRECTION('ref_axis',(-1.,0.,0.));
#839=DIRECTION('center_axis',(0.,0.,-1.));
#840=DIRECTION('ref_axis',(-1.,0.,0.));
#841=DIRECTION('center_axis',(0.,0.,1.));
#842=DIRECTION('ref_axis',(-1.,0.,0.));
#843=DIRECTION('',(0.,0.,1.));
#844=DIRECTION('center_axis',(0.,0.,1.));
#845=DIRECTION('ref_axis',(-1.,0.,0.));
#846=DIRECTION('',(0.,0.,1.));
#847=DIRECTION('center_axis',(0.,0.,1.));
#848=DIRECTION('ref_axis',(-1.,0.,0.));
#849=DIRECTION('',(0.,0.,1.));
#850=DIRECTION('center_axis',(0.,0.,1.));
#851=DIRECTION('ref_axis',(-1.,0.,0.));
#852=DIRECTION('',(0.,0.,1.));
#853=CARTESIAN_POINT('',(0.,0.,0.));
#854=CARTESIAN_POINT('Origin',(59.45,37.45,0.));
#855=CARTESIAN_POINT('',(60.45,37.45,3.));
#856=CARTESIAN_POINT('',(59.45,38.45,3.));
#857=CARTESIAN_POINT('Origin',(59.45,37.45,3.));
#858=CARTESIAN_POINT('',(60.45,37.45,13.));
#859=CARTESIAN_POINT('',(60.45,37.45,0.));
#860=CARTESIAN_POINT('',(59.45,38.45,13.));
#861=CARTESIAN_POINT('Origin',(59.45,37.45,13.));
#862=CARTESIAN_POINT('',(59.45,38.45,0.));
#863=CARTESIAN_POINT('Origin',(0.,0.,3.));
#864=CARTESIAN_POINT('',(-59.45,38.45,3.));
#865=CARTESIAN_POINT('',(60.45,38.45,3.));
#866=CARTESIAN_POINT('',(-60.45,37.45,3.));
#867=CARTESIAN_POINT('Origin',(-59.45,37.45,3.));
#868=CARTESIAN_POINT('',(-60.45,-37.45,3.));
#869=CARTESIAN_POINT('',(-60.45,38.45,3.));
#870=CARTESIAN_POINT('',(-59.45,-38.45,3.));
#871=CARTESIAN_POINT('Origin',(-59.45,-37.45,3.));
#872=CARTESIAN_POINT('',(-46.52,-38.45,3.));
#873=CARTESIAN_POINT('',(-60.45,-38.45,3.));
#874=CARTESIAN_POINT('',(-46.52,-48.45,3.00000014901161));
#875=CARTESIAN_POINT('',(-46.52,-48.45,3.00000014901161));
#876=CARTESIAN_POINT('',(-34.52,-48.45,3.00000014901161));
#877=CARTESIAN_POINT('',(-52.485,-48.45,3.00000014901161));
#878=CARTESIAN_POINT('',(-34.52,-38.45,3.00000014901161));
#879=CARTESIAN_POINT('',(-34.52,-48.45,3.00000014901161));
#880=CARTESIAN_POINT('',(59.45,-38.45,3.));
#881=CARTESIAN_POINT('',(-60.45,-38.45,3.));
#882=CARTESIAN_POINT('',(60.45,-37.45,3.));
#883=CARTESIAN_POINT('Origin',(59.45,-37.45,3.));
#884=CARTESIAN_POINT('',(60.45,-38.45,3.));
#885=CARTESIAN_POINT('Origin',(-60.45,38.45,0.));
#886=CARTESIAN_POINT('',(-59.45,38.45,13.));
#887=CARTESIAN_POINT('',(60.45,38.45,13.));
#888=CARTESIAN_POINT('',(-59.45,38.45,0.));
#889=CARTESIAN_POINT('Origin',(-59.45,37.45,0.));
#890=CARTESIAN_POINT('',(-60.45,37.45,13.));
#891=CARTESIAN_POINT('Origin',(-59.45,37.45,13.));
#892=CARTESIAN_POINT('',(-60.45,37.45,0.));
#893=CARTESIAN_POINT('Origin',(-59.45,-37.45,0.));
#894=CARTESIAN_POINT('',(-60.45,-37.45,13.));
#895=CARTESIAN_POINT('',(-60.45,-37.45,0.));
#896=CARTESIAN_POINT('',(-59.45,-38.45,13.));
#897=CARTESIAN_POINT('Origin',(-59.45,-37.45,13.));
#898=CARTESIAN_POINT('',(-59.45,-38.45,0.));
#899=CARTESIAN_POINT('Origin',(60.45,-38.45,0.));
#900=CARTESIAN_POINT('',(59.45,-38.45,13.));
#901=CARTESIAN_POINT('',(-60.45,-38.45,13.));
#902=CARTESIAN_POINT('',(59.45,-38.45,0.));
#903=CARTESIAN_POINT('',(-33.02,-38.45,4.50000014901161));
#904=CARTESIAN_POINT('Origin',(-34.52,-38.45,4.50000014901161));
#905=CARTESIAN_POINT('',(-33.02,-38.45,8.50000014901161));
#906=CARTESIAN_POINT('',(-33.02,-38.45,4.25000007450581));
#907=CARTESIAN_POINT('',(-34.52,-38.45,10.0000001490116));
#908=CARTESIAN_POINT('Origin',(-34.52,-38.45,8.50000014901161));
#909=CARTESIAN_POINT('',(-46.52,-38.45,10.0000001490116));
#910=CARTESIAN_POINT('',(6.965,-38.45,10.0000001490116));
#911=CARTESIAN_POINT('',(-48.02,-38.45,8.50000014901161));
#912=CARTESIAN_POINT('Origin',(-46.52,-38.45,8.5000001490116));
#913=CARTESIAN_POINT('',(-48.02,-38.45,4.50000014901161));
#914=CARTESIAN_POINT('',(-48.02,-38.45,2.25000007450581));
#915=CARTESIAN_POINT('Origin',(-46.52,-38.45,4.50000014901162));
#916=CARTESIAN_POINT('Origin',(59.45,-37.45,0.));
#917=CARTESIAN_POINT('',(60.45,-37.45,13.));
#918=CARTESIAN_POINT('Origin',(59.45,-37.45,13.));
#919=CARTESIAN_POINT('',(60.45,-37.45,0.));
#920=CARTESIAN_POINT('Origin',(60.45,38.45,0.));
#921=CARTESIAN_POINT('',(60.45,-38.45,13.));
#922=CARTESIAN_POINT('Origin',(-69.45,47.45,0.));
#923=CARTESIAN_POINT('',(-70.45,47.45,13.));
#924=CARTESIAN_POINT('',(-69.45,48.45,13.));
#925=CARTESIAN_POINT('Origin',(-69.45,47.45,13.));
#926=CARTESIAN_POINT('',(-69.45,48.45,0.));
#927=CARTESIAN_POINT('',(-69.45,48.45,0.));
#928=CARTESIAN_POINT('',(-70.45,47.45,0.));
#929=CARTESIAN_POINT('Origin',(-69.45,47.45,0.));
#930=CARTESIAN_POINT('',(-70.45,47.45,0.));
#931=CARTESIAN_POINT('Origin',(0.,0.,0.));
#932=CARTESIAN_POINT('',(69.45,48.45,0.));
#933=CARTESIAN_POINT('',(70.45,48.45,0.));
#934=CARTESIAN_POINT('',(70.45,47.45,0.));
#935=CARTESIAN_POINT('Origin',(69.45,47.45,0.));
#936=CARTESIAN_POINT('',(70.45,-47.45,0.));
#937=CARTESIAN_POINT('',(70.45,-48.45,0.));
#938=CARTESIAN_POINT('',(69.45,-48.45,0.));
#939=CARTESIAN_POINT('Origin',(69.45,-47.45,0.));
#940=CARTESIAN_POINT('',(-69.45,-48.45,0.));
#941=CARTESIAN_POINT('',(-70.45,-48.45,0.));
#942=CARTESIAN_POINT('',(-70.45,-47.45,0.));
#943=CARTESIAN_POINT('Origin',(-69.45,-47.45,0.));
#944=CARTESIAN_POINT('',(-70.45,48.45,0.));
#945=CARTESIAN_POINT('',(-63.5500009685755,-43.0000006407499,0.));
#946=CARTESIAN_POINT('Origin',(-65.0000009685755,-43.0000006407499,0.));
#947=CARTESIAN_POINT('',(66.4500009685755,43.0000006407499,0.));
#948=CARTESIAN_POINT('Origin',(65.0000009685755,43.0000006407499,0.));
#949=CARTESIAN_POINT('',(66.4500009685755,-43.0000006407499,0.));
#950=CARTESIAN_POINT('Origin',(65.0000009685755,-43.0000006407499,0.));
#951=CARTESIAN_POINT('',(-63.5500009685755,43.0000006407499,0.));
#952=CARTESIAN_POINT('Origin',(-65.0000009685755,43.0000006407499,0.));
#953=CARTESIAN_POINT('Origin',(70.45,48.45,0.));
#954=CARTESIAN_POINT('',(69.45,48.45,13.));
#955=CARTESIAN_POINT('',(70.45,48.45,13.));
#956=CARTESIAN_POINT('',(69.45,48.45,0.));
#957=CARTESIAN_POINT('Origin',(69.45,47.45,0.));
#958=CARTESIAN_POINT('',(70.45,47.45,13.));
#959=CARTESIAN_POINT('Origin',(69.45,47.45,13.));
#960=CARTESIAN_POINT('',(70.45,47.45,0.));
#961=CARTESIAN_POINT('Origin',(69.45,-47.45,0.));
#962=CARTESIAN_POINT('',(70.45,-47.45,13.));
#963=CARTESIAN_POINT('',(69.45,-48.45,13.));
#964=CARTESIAN_POINT('Origin',(69.45,-47.45,13.));
#965=CARTESIAN_POINT('',(69.45,-48.45,0.));
#966=CARTESIAN_POINT('',(70.45,-47.45,0.));
#967=CARTESIAN_POINT('Origin',(-70.45,-48.45,0.));
#968=CARTESIAN_POINT('',(-69.45,-48.45,13.));
#969=CARTESIAN_POINT('',(-70.45,-48.45,13.));
#970=CARTESIAN_POINT('',(-69.45,-48.45,0.));
#971=CARTESIAN_POINT('',(-48.02,-48.45,8.50000014901161));
#972=CARTESIAN_POINT('',(-46.52,-48.45,10.0000001490116));
#973=CARTESIAN_POINT('Origin',(-46.52,-48.45,8.5000001490116));
#974=CARTESIAN_POINT('',(-34.52,-48.45,10.0000001490116));
#975=CARTESIAN_POINT('',(-58.485,-48.45,10.0000001490116));
#976=CARTESIAN_POINT('',(-33.02,-48.45,8.50000014901161));
#977=CARTESIAN_POINT('Origin',(-34.52,-48.45,8.50000014901161));
#978=CARTESIAN_POINT('',(-33.02,-48.45,4.50000014901161));
#979=CARTESIAN_POINT('',(-33.02,-48.45,4.25000007450581));
#980=CARTESIAN_POINT('Origin',(-34.52,-48.45,4.50000014901161));
#981=CARTESIAN_POINT('',(-48.02,-48.45,4.50000014901161));
#982=CARTESIAN_POINT('Origin',(-46.52,-48.45,4.50000014901162));
#983=CARTESIAN_POINT('',(-48.02,-48.45,2.25000007450581));
#984=CARTESIAN_POINT('Origin',(-69.45,-47.45,0.));
#985=CARTESIAN_POINT('',(-70.45,-47.45,13.));
#986=CARTESIAN_POINT('Origin',(-69.45,-47.45,13.));
#987=CARTESIAN_POINT('',(-70.45,-47.45,0.));
#988=CARTESIAN_POINT('Origin',(-46.52,-48.45,10.0000001490116));
#989=CARTESIAN_POINT('',(-34.52,-48.45,10.0000001490116));
#990=CARTESIAN_POINT('',(-46.52,-48.45,10.0000001490116));
#991=CARTESIAN_POINT('Origin',(-46.52,-48.45,8.5000001490116));
#992=CARTESIAN_POINT('',(-48.02,-48.45,8.50000014901161));
#993=CARTESIAN_POINT('Origin',(-48.02,-48.45,4.50000014901161));
#994=CARTESIAN_POINT('',(-48.02,-48.45,4.50000014901161));
#995=CARTESIAN_POINT('Origin',(-46.52,-48.45,4.50000014901162));
#996=CARTESIAN_POINT('Origin',(-34.52,-48.45,4.50000014901161));
#997=CARTESIAN_POINT('',(-33.02,-48.45,4.50000014901161));
#998=CARTESIAN_POINT('Origin',(-33.02,-48.45,8.50000014901161));
#999=CARTESIAN_POINT('',(-33.02,-48.45,8.50000014901161));
#1000=CARTESIAN_POINT('Origin',(-34.52,-48.45,8.50000014901161));
#1001=CARTESIAN_POINT('Origin',(70.45,-48.45,0.));
#1002=CARTESIAN_POINT('',(70.45,-48.45,13.));
#1003=CARTESIAN_POINT('Origin',(-70.45,48.45,0.));
#1004=CARTESIAN_POINT('',(-70.45,48.45,13.));
#1005=CARTESIAN_POINT('Origin',(-60.45,-38.45,0.));
#1006=CARTESIAN_POINT('',(-60.45,38.45,13.));
#1007=CARTESIAN_POINT('Origin',(0.,0.,13.));
#1008=CARTESIAN_POINT('',(-63.5500009685755,43.0000006407499,13.));
#1009=CARTESIAN_POINT('Origin',(-65.0000009685755,43.0000006407499,13.));
#1010=CARTESIAN_POINT('',(66.4500009685755,-43.0000006407499,13.));
#1011=CARTESIAN_POINT('Origin',(65.0000009685755,-43.0000006407499,13.));
#1012=CARTESIAN_POINT('',(66.4500009685755,43.0000006407499,13.));
#1013=CARTESIAN_POINT('Origin',(65.0000009685755,43.0000006407499,13.));
#1014=CARTESIAN_POINT('',(-63.5500009685755,-43.0000006407499,13.));
#1015=CARTESIAN_POINT('Origin',(-65.0000009685755,-43.0000006407499,13.));
#1016=CARTESIAN_POINT('Origin',(-65.0000009685755,43.0000006407499,15.));
#1017=CARTESIAN_POINT('',(-63.5500009685755,43.0000006407499,15.));
#1018=CARTESIAN_POINT('Origin',(65.0000009685755,-43.0000006407499,15.));
#1019=CARTESIAN_POINT('',(66.4500009685755,-43.0000006407499,15.));
#1020=CARTESIAN_POINT('Origin',(65.0000009685755,43.0000006407499,15.));
#1021=CARTESIAN_POINT('',(66.4500009685755,43.0000006407499,15.));
#1022=CARTESIAN_POINT('Origin',(-65.0000009685755,-43.0000006407499,15.));
#1023=CARTESIAN_POINT('',(-63.5500009685755,-43.0000006407499,15.));
#1024=UNCERTAINTY_MEASURE_WITH_UNIT(LENGTH_MEASURE(0.01),#1028,
'DISTANCE_ACCURACY_VALUE',
'Maximum model space distance between geometric entities at asserted c
onnectivities');
#1025=UNCERTAINTY_MEASURE_WITH_UNIT(LENGTH_MEASURE(0.01),#1028,
'DISTANCE_ACCURACY_VALUE',
'Maximum model space distance between geometric entities at asserted c
onnectivities');
#1026=(
GEOMETRIC_REPRESENTATION_CONTEXT(3)
GLOBAL_UNCERTAINTY_ASSIGNED_CONTEXT((#1024))
GLOBAL_UNIT_ASSIGNED_CONTEXT((#1028,#1030,#1031))
REPRESENTATION_CONTEXT('','3D')
);
#1027=(
GEOMETRIC_REPRESENTATION_CONTEXT(3)
GLOBAL_UNCERTAINTY_ASSIGNED_CONTEXT((#1025))
GLOBAL_UNIT_ASSIGNED_CONTEXT((#1028,#1030,#1031))
REPRESENTATION_CONTEXT('','3D')
);
#1028=(
LENGTH_UNIT()
NAMED_UNIT(*)
SI_UNIT(.MILLI.,.METRE.)
);
#1029=(
LENGTH_UNIT()
NAMED_UNIT(*)
SI_UNIT($,.METRE.)
);
#1030=(
NAMED_UNIT(*)
PLANE_ANGLE_UNIT()
SI_UNIT($,.RADIAN.)
);
#1031=(
NAMED_UNIT(*)
SI_UNIT($,.STERADIAN.)
SOLID_ANGLE_UNIT()
);
#1032=SHAPE_DEFINITION_REPRESENTATION(#1033,#1034);
#1033=PRODUCT_DEFINITION_SHAPE('',$,#1036);
#1034=SHAPE_REPRESENTATION('',(#612),#1026);
#1035=PRODUCT_DEFINITION_CONTEXT('part definition',#1040,'design');
#1036=PRODUCT_DEFINITION('2026-08-21-11-26-03-381','HackPad Case V2',#1037,
#1035);
#1037=PRODUCT_DEFINITION_FORMATION('',$,#1042);
#1038=PRODUCT_RELATED_PRODUCT_CATEGORY('HackPad Case V2',
'HackPad Case V2',(#1042));
#1039=APPLICATION_PROTOCOL_DEFINITION('international standard',
'automotive_design',2009,#1040);
#1040=APPLICATION_CONTEXT(
'Core Data for Automotive Mechanical Design Process');
#1041=PRODUCT_CONTEXT('part definition',#1040,'mechanical');
#1042=PRODUCT('2026-08-21-11-26-03-381','HackPad Case V2',$,(#1041));
#1043=PRESENTATION_STYLE_ASSIGNMENT((#1045));
#1044=PRESENTATION_STYLE_ASSIGNMENT((#1046));
#1045=SURFACE_STYLE_USAGE(.BOTH.,#1047);
#1046=SURFACE_STYLE_USAGE(.BOTH.,#1048);
#1047=SURFACE_SIDE_STYLE('',(#1049));
#1048=SURFACE_SIDE_STYLE('',(#1050));
#1049=SURFACE_STYLE_FILL_AREA(#1051);
#1050=SURFACE_STYLE_FILL_AREA(#1052);
#1051=FILL_AREA_STYLE('Steel - Satin',(#1053));
#1052=FILL_AREA_STYLE('ABS (White)',(#1054));
#1053=FILL_AREA_STYLE_COLOUR('Steel - Satin',#1055);
#1054=FILL_AREA_STYLE_COLOUR('ABS (White)',#1056);
#1055=COLOUR_RGB('Steel - Satin',0.627450980392157,0.627450980392157,0.627450980392157);
#1056=COLOUR_RGB('ABS (White)',0.964705882352941,0.964705882352941,0.952941176470588);
ENDSEC;
END-ISO-10303-21;
